<svg xmlns="http://www.w3.org/2000/svg" xmlns:xlink="http://www.w3.org/1999/xlink" version="1.1" id="Your_Icon" x="0px" y="0px" width="100px" height="100px" viewBox="0 0 100 100" enable-background="new 0 0 100 100" xml:space="preserve">
<g>
	<g>
		<g>
		</g>
	</g>
	<g>
	</g>
</g>
<path d="M31.268,9.593C36.052,6.543,41.938,5,48.913,5c9.174,0,16.777,2.175,22.839,6.541c6.081,4.328,9.083,10.78,9.083,19.334  c0,5.232-1.286,9.649-3.938,13.22c-1.536,2.19-4.482,4.968-8.837,8.348l-4.325,3.336c-2.344,1.815-3.909,3.91-4.67,6.35  c-0.484,1.521-0.742,3.902-0.786,7.129H41.788c0.247-6.82,0.889-11.523,1.944-14.125s3.763-5.592,8.132-8.98l4.416-3.439  c1.459-1.095,2.635-2.278,3.546-3.564c1.599-2.219,2.407-4.637,2.407-7.319c0-3.05-0.89-5.842-2.697-8.37  c-1.797-2.513-5.089-3.77-9.862-3.77c-4.696,0-8.025,1.551-9.979,4.645c-1.966,3.108-0.327,6.327-0.327,9.678H19.165  C19.646,22.52,23.688,14.392,31.268,9.593z M41.365,77.532h18.191L61.324,95H38.819L41.365,77.532z"/>
</svg>